PathFileType	4	(X/Y/Z)	/Users/itak/Documents/Research/Walk-IL/dataset/trc/00043_00004.trc
DataRate	CameraRate	NumFrames	NumMarkers	Units	OrigDataRate	OrigDataStartFrame	OrigNumFrames
100.000000	100.000000	4	53	mm	100.000000	414	474
Frame#	Time	RPSI			LPSI			L3			STRN			T10			C7			CLAV			RBAK			LBAK			LSHO			LUPA			LAEL			LAOL			LWTS			LWPS			LFRA			LIFD			LHPS			LHTS			RSHO			RUPA			RAEL			RAOL			RWTS			RWPS			RFRA			RIFD			RHTS			RHPS			RBHD			LFHD			RFHD			LBHD			LHIP			RHIP			RASI			LASI			LKNE			LTHI			LANK			LTIP			LTOE			LMT1			LMT5			LHEE			RKNE			RTHI			RANK			RTIP			RTOE			RMT1			RMT5			RHEE			
		X1	Y1	Z1	X2	Y2	Z2	X3	Y3	Z3	X4	Y4	Z4	X5	Y5	Z5	X6	Y6	Z6	X7	Y7	Z7	X8	Y8	Z8	X9	Y9	Z9	X10	Y10	Z10	X11	Y11	Z11	X12	Y12	Z12	X13	Y13	Z13	X14	Y14	Z14	X15	Y15	Z15	X16	Y16	Z16	X17	Y17	Z17	X18	Y18	Z18	X19	Y19	Z19	X20	Y20	Z20	X21	Y21	Z21	X22	Y22	Z22	X23	Y23	Z23	X24	Y24	Z24	X25	Y25	Z25	X26	Y26	Z26	X27	Y27	Z27	X28	Y28	Z28	X29	Y29	Z29	X30	Y30	Z30	X31	Y31	Z31	X32	Y32	Z32	X33	Y33	Z33	X34	Y34	Z34	X35	Y35	Z35	X36	Y36	Z36	X37	Y37	Z37	X38	Y38	Z38	X39	Y39	Z39	X40	Y40	Z40	X41	Y41	Z41	X42	Y42	Z42	X43	Y43	Z43	X44	Y44	Z44	X45	Y45	Z45	X46	Y46	Z46	X47	Y47	Z47	X48	Y48	Z48	X49	Y49	Z49	X50	Y50	Z50	X51	Y51	Z51	X52	Y52	Z52	X53	Y53	Z53	

415	4.14	2.728543043136597	1072.77001953125	939.8433227539062	161.6946258544922	1065.35986328125	901.9266357421875	90.76485443115234	1119.895141601562	910.2714233398438	127.0838241577148	1330.61572265625	1120.812622070312	91.85958862304688	1264.060180664062	874.634765625	114.4406967163086	1534.081176757812	905.8024291992188	126.5346221923828	1453.988647460938	1071.095947265625	25.30763816833496	1395.398681640625	874.834716796875	208.5066070556641	1489.2197265625	879.838134765625	294.369384765625	1501.970825195312	971.9183959960938	365.6476135253906	1372.204833984375	942.1825561523438	384.8067016601562	1153.59375	956.0986328125	289.2381591796875	1140.372192382812	911.3423461914062	333.2849426269531	909.705810546875	1067.951904296875	366.0194702148438	888.6768188476562	987.9475708007812	389.1874084472656	1038.723266601562	976.4447631835938	311.0469360351562	727.8876953125	1108.380859375	366.4765625	801.5865478515625	1027.617309570312	345.5433044433594	817.3640747070312	1093.954223632812	-51.55085754394531	1526.927490234375	1006.098571777344	-124.2589263916016	1457.431274414062	1006.955688476562	-155.1867065429688	1187.482177734375	994.704833984375	-60.0499267578125	1158.763793945312	982.9130859375	-104.3008346557617	937.597900390625	1137.05029296875	-178.8252563476562	918.7977905273438	1084.801391601562	-168.7931671142578	1112.255737304688	1015.067993164062	-86.2034912109375	753.5979614257812	1164.433959960938	-112.5988159179688	830.5216064453125	1180.048095703125	-171.3892822265625	821.718994140625	1133.89892578125	190.0674591064453	1718.1865234375	940.8905029296875	60.13775253295898	1752.237060546875	1113.292236328125	158.7047424316406	1755.409057617188	1115.928466796875	45.86782455444336	1711.976318359375	943.4442138671875	291.9597473144531	965.8443603515625	973.7694702148438	-70.25442504882812	959.8150634765625	1075.110595703125	23.90467643737793	1001.111022949219	1155.531494140625	251.7380218505859	1017.5966796875	1100.202880859375	258.9187622070312	524.8738403320312	1067.4140625	289.4377746582031	658.2941284179688	1024.892700195312	253.1799774169922	40.31801986694336	969.6900634765625	269.2427062988281	288.5547180175781	988.933837890625	212.4904479980469	39.39484405517578	1195.134399414062	190.7945404052734	49.07477569580078	1137.241333007812	286.2669982910156	40.30613708496094	1090.266723632812	193.6228790283203	46.66477584838867	906.4819946289062	2.784452676773071	525.5570068359375	1092.650024414062	-52.62247848510742	792.3629150390625	1104.552734375	19.86034202575684	43.03897094726562	993.3292236328125	3.972259998321533	401.2364196777344	1072.955200195312	124.2311325073242	46.251220703125	1203.26123046875	136.1475524902344	49.1053352355957	1134.509033203125	40.03331756591797	42.73184204101562	1143.096313476562	47.51090240478516	44.13302230834961	928.0840454101562	
416	4.15	3.8346107006073	1072.836669921875	941.270751953125	162.8338012695312	1065.385864257812	903.5020751953125	91.93474578857422	1119.846801757812	911.8112182617188	127.974853515625	1330.793701171875	1121.986328125	93.05420684814453	1263.87841796875	875.9190063476562	115.5671234130859	1533.948852539062	906.6117553710938	127.5046081542969	1454.099609375	1072.055786132812	26.4831428527832	1395.217529296875	875.7696533203125	209.6501617431641	1489.061645507812	880.8463745117188	295.3839721679688	1502.014892578125	972.9939575195312	366.7689208984375	1372.2626953125	943.5376586914062	386.0047302246094	1153.647094726562	957.8590698242188	290.5341796875	1140.348754882812	912.912841796875	334.3172607421875	909.7916259765625	1069.75390625	367.2166442871094	888.7451782226562	989.85498046875	390.3136596679688	1038.798217773438	978.33349609375	311.830078125	727.9371337890625	1110.112182617188	367.5918884277344	801.6531372070312	1029.512329101562	346.4457092285156	817.4170532226562	1095.791870117188	-50.51333999633789	1526.968139648438	1006.724731445312	-123.2178649902344	1457.511352539062	1007.487548828125	-153.8815765380859	1187.59619140625	994.54638671875	-58.67929077148438	1158.993896484375	982.9046630859375	-103.7183303833008	936.4692993164062	1134.890869140625	-178.1851196289062	918.3427734375	1082.31103515625	-167.5515594482422	1112.3818359375	1014.402770996094	-86.14546966552734	751.9623413085938	1160.159423828125	-112.2810363769531	828.7530517578125	1176.636352539062	-170.9915924072266	820.7028198242188	1130.317504882812	191.1246490478516	1718.275512695312	941.733154296875	61.13948440551758	1752.271484375	1114.055053710938	159.6805572509766	1755.3564453125	1116.786865234375	46.91519165039062	1712.078125	944.223876953125	292.9121398925781	965.8023681640625	975.4677734375	-69.16728973388672	959.8268432617188	1076.419189453125	24.87719535827637	1001.12744140625	1156.939208984375	252.8033294677734	1017.563171386719	1101.888427734375	259.6943969726562	524.4784545898438	1066.698974609375	290.1760864257812	658.189697265625	1024.843505859375	253.2446899414062	40.36594390869141	969.5966796875	269.5267944335938	288.4723205566406	988.3934326171875	212.5136871337891	39.40822601318359	1195.118041992188	190.8576812744141	49.06298065185547	1137.23193359375	286.3544616699219	40.29303741455078	1090.211303710938	193.7087554931641	46.56988143920898	906.4598999023438	3.330434799194336	525.4659423828125	1092.893188476562	-51.88778305053711	792.315673828125	1105.599731445312	19.84811401367188	43.09409332275391	993.3056030273438	4.428134441375732	401.2894592285156	1073.097045898438	124.2129974365234	46.31916427612305	1203.266479492188	136.1421203613281	49.12555694580078	1134.50048828125	40.05342864990234	42.74990844726562	1143.070190429688	47.51841354370117	44.16095733642578	928.0553588867188	
417	4.16	4.953151702880859	1072.9052734375	942.6337280273438	163.9842376708984	1065.3857421875	905.0218505859375	93.10520935058594	1119.7666015625	913.2890014648438	128.8747406005859	1330.929931640625	1123.14453125	94.24156951904297	1263.697509765625	877.19140625	116.6413421630859	1533.804321289062	907.4243774414062	128.4840393066406	1454.179321289062	1072.999633789062	27.62296867370605	1395.024780273438	876.7120971679688	210.7381744384766	1488.879028320312	881.8267211914062	296.3924865722656	1502.0048828125	974.0122680664062	367.8441772460938	1372.259765625	944.7945556640625	387.1766357421875	1153.643310546875	959.470947265625	291.8072509765625	1140.268310546875	914.3524169921875	335.3515319824219	909.870849609375	1071.489990234375	368.4061889648438	888.7684936523438	991.7001953125	391.4439392089844	1038.819458007812	980.09033203125	312.632568359375	728.0123291015625	1111.89306640625	368.71044921875	801.6907958984375	1031.398193359375	347.3773803710938	817.4885864257812	1097.609741210938	-49.51008224487305	1526.975830078125	1007.39990234375	-122.2099380493164	1457.559692382812	1008.070678710938	-152.6713409423828	1187.687866210938	994.4056396484375	-57.40608596801758	1159.184814453125	982.8673706054688	-103.1288375854492	935.3640747070312	1132.749877929688	-177.5474548339844	917.8836059570312	1079.904663085938	-166.3847198486328	1112.483032226562	1013.769409179688	-86.01703643798828	750.4113159179688	1155.940307617188	-111.8958206176758	827.0756225585938	1173.275268554688	-170.5812530517578	819.6991577148438	1126.828369140625	192.1598510742188	1718.347778320312	942.58349609375	62.16180038452148	1752.274169921875	1114.857666015625	160.6444244384766	1755.271728515625	1117.650634765625	47.95534896850586	1712.173583984375	945.012451171875	293.8734741210938	965.7227172851562	977.1134643554688	-68.08331298828125	959.8500366210938	1077.642456054688	25.85549545288086	1001.123596191406	1158.287719726562	253.8468170166016	1017.486206054688	1103.5224609375	260.4748840332031	524.0525512695312	1065.998779296875	290.9000854492188	658.0479736328125	1024.758666992188	253.2975921630859	40.39938354492188	969.5191040039062	269.7963256835938	288.3863830566406	987.8600463867188	212.5307312011719	39.41295623779297	1195.107055664062	190.9089813232422	49.04456329345703	1137.22509765625	286.4357604980469	40.27484893798828	1090.157348632812	193.772705078125	46.47864151000977	906.4396362304688	3.776840686798096	525.36328125	1093.063232421875	-51.13934326171875	792.2748413085938	1106.605224609375	19.84230041503906	43.13338851928711	993.2860717773438	4.824769973754883	401.3417358398438	1073.176147460938	124.2122268676758	46.35999298095703	1203.269287109375	136.1364135742188	49.13834381103516	1134.48828125	40.07188034057617	42.76517486572266	1143.048461914062	47.5291633605957	44.18253326416016	928.0250244140625	
418	4.17	6.080867767333984	1072.97509765625	943.932861328125	165.1451721191406	1065.362426757812	906.4879760742188	94.27537536621094	1119.656982421875	914.7044677734375	129.7835540771484	1331.028442382812	1124.284423828125	95.42403411865234	1263.519409179688	878.4451904296875	117.6693115234375	1533.650268554688	908.240234375	129.4724273681641	1454.226318359375	1073.930786132812	28.73159599304199	1394.823364257812	877.6544799804688	211.7811431884766	1488.676635742188	882.7796020507812	297.3970947265625	1501.946899414062	974.9788208007812	368.8778991699219	1372.195556640625	945.9580688476562	388.3193969726562	1153.585205078125	960.943603515625	293.0518798828125	1140.13427734375	915.6712646484375	336.3830871582031	909.9395141601562	1073.158325195312	369.5813598632812	888.7476196289062	993.4782104492188	392.578857421875	1038.789306640625	981.7181396484375	313.4613342285156	728.1094970703125	1113.716918945312	369.8334045410156	801.7010498046875	1033.266479492188	348.3445434570312	817.5762329101562	1099.401977539062	-48.54286193847656	1526.945434570312	1008.12353515625	-121.2341766357422	1457.566162109375	1008.699096679688	-151.5476379394531	1187.751831054688	994.2891235351562	-56.22122192382812	1159.330078125	982.8118896484375	-102.5327072143555	934.2734985351562	1130.640625	-176.9147338867188	917.417236328125	1077.593017578125	-165.2886047363281	1112.553344726562	1013.174987792969	-85.82803344726562	748.9356689453125	1151.809204101562	-111.4460906982422	825.5140380859375	1169.992919921875	-170.1594085693359	818.7098388671875	1123.457763671875	193.1793670654297	1718.401733398438	943.4448852539062	63.19378662109375	1752.246948242188	1115.699584960938	161.5896911621094	1755.158447265625	1118.52392578125	48.98920440673828	1712.261352539062	945.8093872070312	294.8381042480469	965.6113891601562	978.7127685546875	-67.01631927490234	959.8955078125	1078.79150390625	26.83129501342773	1001.106384277344	1159.586181640625	254.8639984130859	1017.37451171875	1105.109375	261.2449951171875	523.6092529296875	1065.320190429688	291.5977172851562	657.8717041015625	1024.6611328125	253.3401947021484	40.41140365600586	969.46044921875	270.05322265625	288.2962341308594	987.3399658203125	212.5431365966797	39.41167831420898	1195.099365234375	190.9493560791016	49.02633666992188	1137.219604492188	286.5101928710938	40.25244522094727	1090.105834960938	193.8176727294922	46.39104461669922	906.4208374023438	4.145140171051025	525.253662109375	1093.178100585938	-50.3624382019043	792.2388916015625	1107.570556640625	19.84285926818848	43.16355895996094	993.2672729492188	5.166854381561279	401.3900756835938	1073.1962890625	124.227294921875	46.37516784667969	1203.272094726562	136.1360168457031	49.13871002197266	1134.476684570312	40.09039306640625	42.77804946899414	1143.03076171875	47.54653167724609	44.1986083984375	927.99560546875	
